#!OML:ASF E:\Steps\Project 1\Capture day 1\Session 2\Subject.ASF
:FULLY-SPECIFIED
:DEGREES
455
root 9.29829 16.3249 13.5586 -153.367 1.0232 179.347
lowerback -29.4049 -2.51903 -4.26557
upperback -4.33794 -0.712096 -0.148431
thorax 11.4442 0.00570697 2.12928
lowerneck -1.5502 -4.9853 -0.186009
upperneck -6.82879 -6.26823 2.97925
head -1.7576 -3.0726 1.01922
rclavicle 5.44173e-015 4.37326e-015
rhumerus -39.3001 -35.2028 -68.4599
rradius 16.8889
rwrist 25.9248
rhand -9.95077 -54.0626
rfingers 7.12502
rthumb -163.969 -263.419
lclavicle 5.44173e-015 4.37326e-015
lhumerus -34.5262 19.6348 73.1856
lradius 9.03591
lwrist -26.4115
lhand -20.9256 -11.6143
lfingers 7.12502
lthumb 5.44615 18.2958
rfemur -22.5373 7.32499 17.2881
rtibia 5.07944
rfoot -18.398 -6.05727
rtoes -14.3147
lfemur -21.1996 -9.89587 -18.1816
ltibia 4.46667
lfoot -7.81926 8.96924
ltoes -42.3238
456
root 9.29797 16.3248 13.5594 -153.456 0.950317 179.314
lowerback -29.5226 -2.54706 -4.35111
upperback -4.23273 -0.732451 -0.121083
thorax 11.6292 -0.020257 2.20095
lowerneck -1.58191 -4.94968 -0.2777
upperneck -6.89963 -6.21159 3.03134
head -1.77141 -3.04097 1.05071
rclavicle -6.31141e-015 4.37326e-015
rhumerus -38.6346 -34.6106 -69.1749
rradius 17.1491
rwrist 25.3571
rhand -9.91563 -54.9888
rfingers 7.12502
rthumb -163.935 -264.343
lclavicle -6.31141e-015 4.37326e-015
lhumerus -34.2405 19.6427 73.4052
lradius 9.09257
lwrist -26.2056
lhand -21.0855 -11.5961
lfingers 7.12502
lthumb 5.29179 18.3179
rfemur -22.3832 7.36109 17.2559
rtibia 4.96418
rfoot -18.3393 -6.17273
rtoes -14.0928
lfemur -21.1372 -9.93062 -18.2184
ltibia 4.51404
lfoot -7.884 8.87913
ltoes -42.1075
457
root 9.29769 16.3249 13.5623 -153.479 0.906697 179.315
lowerback -29.6178 -2.55336 -4.45571
upperback -4.21094 -0.707007 -0.0768278
thorax 11.7035 -0.0159966 2.32212
lowerneck -1.45394 -4.92566 -0.321312
upperneck -7.16147 -6.16098 3.06974
head -1.87671 -3.01313 1.07972
rclavicle 7.70291e-015 -6.75868e-015
rhumerus -38.2468 -34.2273 -69.563
rradius 17.4166
rwrist 24.8914
rhand -9.78567 -55.5755
rfingers 7.12502
rthumb -163.81 -264.919
lclavicle 7.70291e-015 -6.75868e-015
lhumerus -33.9904 19.5651 73.671
lradius 9.09984
lwrist -26.0348
lhand -21.1944 -11.6627
lfingers 7.12502
lthumb 5.18665 18.2539
rfemur -22.3755 7.3446 17.2575
rtibia 5.00136
rfoot -18.3735 -6.15186
rtoes -13.8474
lfemur -21.1694 -9.92132 -18.2097
ltibia 4.59915
lfoot -7.86457 8.79914
ltoes -42.1934
458
root 9.2976 16.3263 13.5661 -153.528 0.82121 179.337
lowerback -29.5649 -2.55428 -4.53239
upperback -4.25176 -0.685674 -0.0393705
thorax 11.6293 -0.00522096 2.41829
lowerneck -1.41636 -4.87742 -0.370215
upperneck -7.0772 -6.10274 3.09085
head -1.85492 -2.98553 1.09314
rclavicle 2.23633e-016 -1.27222e-014
rhumerus -38.1848 -34.1665 -69.6323
rradius 17.6693
rwrist 24.4631
rhand -9.94866 -55.2817
rfingers 7.12502
rthumb -163.967 -264.638
lclavicle 2.23633e-016 -1.27222e-014
lhumerus -33.7559 19.4255 73.8986
lradius 9.07083
lwrist -25.893
lhand -21.0854 -11.7493
lfingers 7.12502
lthumb 5.29194 18.1647
rfemur -22.3353 7.39212 17.2845
rtibia 5.01391
rfoot -18.4055 -6.18774
rtoes -13.4258
lfemur -21.1863 -9.85917 -18.1857
ltibia 4.69616
lfoot -7.79712 8.67971
ltoes -42.5158
459
root 9.29647 16.3264 13.569 -153.627 0.745025 179.342
lowerback -29.4592 -2.53002 -4.54028
upperback -4.27143 -0.654199 -0.0655059
thorax 11.5503 0.0117564 2.40501
lowerneck -1.35044 -4.87359 -0.435111
upperneck -6.93963 -6.10199 3.22167
head -1.81614 -2.98941 1.14365
rclavicle 3.72721e-016 -9.93923e-015
rhumerus -37.9111 -33.5481 -70.1989
rradius 18.0378
rwrist 23.1779
rhand -10.2745 -54.308
rfingers 7.12502
rthumb -164.281 -263.69
lclavicle 3.72721e-016 -9.93923e-015
lhumerus -33.5602 19.2524 74.0092
lradius 9.16718
lwrist -25.7657
lhand -20.7929 -12.0029
lfingers 7.12502
lthumb 5.57426 17.9038
rfemur -22.2013 7.35348 17.3281
rtibia 4.9616
rfoot -18.3766 -6.18521
rtoes -13.2139
lfemur -21.1113 -9.8054 -18.2137
ltibia 4.74882
lfoot -7.85942 8.52678
ltoes -42.6604
460
root 9.29524 16.3262 13.5719 -153.687 0.687587 179.334
lowerback -29.3845 -2.48319 -4.52687
upperback -4.30248 -0.587367 -0.139033
thorax 11.4706 0.0493602 2.339
lowerneck -1.1923 -4.91909 -0.471589
upperneck -6.95268 -6.15322 3.42467
head -1.83989 -3.0201 1.21912
rclavicle 3.15571e-015 -1.66979e-014
rhumerus -37.4839 -32.5563 -71.111
rradius 18.5461
rwrist 21.562
rhand -10.2219 -54.3912
rfingers 7.12502
rthumb -164.23 -263.769
lclavicle 3.15571e-015 -1.66979e-014
lhumerus -33.4537 19.0003 74.0612
lradius 9.44488
lwrist -25.5996
lhand -20.633 -12.1882
lfingers 7.12502
lthumb 5.72865 17.7144
rfemur -22.1248 7.31579 17.3452
rtibia 4.96198
rfoot -18.4021 -6.2202
rtoes -13.2436
lfemur -21.0961 -9.7352 -18.253
ltibia 4.82778
lfoot -7.93577 8.35832
ltoes -42.6235
461
root 9.29453 16.3273 13.5747 -153.743 0.609821 179.331
lowerback -29.2943 -2.4584 -4.53303
upperback -4.35306 -0.542982 -0.196232
thorax 11.3627 0.0779537 2.29457
lowerneck -1.04227 -4.97596 -0.446089
upperneck -7.02443 -6.21438 3.61127
head -1.88336 -3.05573 1.28069
rclavicle -3.97569e-015 -2.78299e-015
rhumerus -37.1534 -31.6357 -71.94
rradius 19.0597
rwrist 20.2076
rhand -9.93008 -55.3951
rfingers 7.12502
rthumb -163.949 -264.75
lclavicle -3.97569e-015 -2.78299e-015
lhumerus -33.4021 18.7586 74.1004
lradius 9.76422
lwrist -25.5293
lhand -20.6745 -12.2642
lfingers 7.12502
lthumb 5.68858 17.6395
rfemur -22.07 7.42536 17.3318
rtibia 5.00802
rfoot -18.4737 -6.38868
rtoes -13.239
lfemur -21.1285 -9.65417 -18.2652
ltibia 4.9685
lfoot -7.95271 8.26113
ltoes -42.4438
462
root 9.29551 16.3263 13.5781 -153.821 0.546799 179.367
lowerback -29.1897 -2.45967 -4.5388
upperback -4.38193 -0.547105 -0.20086
thorax 11.2765 0.079099 2.29103
lowerneck -0.911858 -5.02718 -0.404773
upperneck -7.19484 -6.26029 3.77518
head -1.957 -3.08197 1.33449
rclavicle 3.00662e-015 -1.19271e-015
rhumerus -36.7927 -30.8773 -72.6026
rradius 19.3735
rwrist 19.2222
rhand -9.73941 -55.4387
rfingers 7.12502
rthumb -163.765 -264.779
lclavicle 3.00662e-015 -1.19271e-015
lhumerus -33.3652 18.63 74.121
lradius 10.1065
lwrist -25.4827
lhand -20.636 -12.3928
lfingers 7.12502
lthumb 5.72578 17.5099
rfemur -22.0226 7.56278 17.3672
rtibia 5.07826
rfoot -18.5479 -6.50352
rtoes -13.1477
lfemur -21.1256 -9.59688 -18.2262
ltibia 5.09187
lfoot -7.99311 8.21682
ltoes -42.3186
463
root 9.29714 16.3232 13.5829 -153.919 0.558398 179.387
lowerback -29.1059 -2.44036 -4.57356
upperback -4.36036 -0.524971 -0.199281
thorax 11.2575 0.0839161 2.32064
lowerneck -0.874041 -5.06624 -0.407217
upperneck -7.36735 -6.29082 3.89139
head -2.01559 -3.0968 1.37756
rclavicle -1.49089e-016 -1.27222e-014
rhumerus -36.3074 -30.1089 -73.287
rradius 19.6458
rwrist 18.2948
rhand -9.6901 -55.1881
rfingers 7.12502
rthumb -163.718 -264.525
lclavicle -1.49089e-016 -1.27222e-014
lhumerus -32.9822 17.1942 75.1151
lradius 10.502
lwrist -23.8376
lhand -20.72 -12.0326
lfingers 7.12502
lthumb 5.64468 17.8722
rfemur -22.0286 7.47442 17.4266
rtibia 5.24365
rfoot -18.6481 -6.37249
rtoes -13.0834
lfemur -21.0664 -9.57092 -18.2189
ltibia 5.16012
lfoot -8.09609 8.14663
ltoes -42.5
